
<svg version="1.1" id="Layer_1" xmlns="http://www.w3.org/2000/svg" xmlns:xlink="http://www.w3.org/1999/xlink" x="0px" y="0px" viewBox="0 0 992.3 945" style="enable-background:new 0 0 992.3 945;" xml:space="preserve">
	<path d="M340.8,883.2c4.2-14.2,8.3-28.3,12.6-42.3c19.3-63.8,38.7-127.7,57.9-191.5c1.2-4.2,1.5-9.3,0.4-13.5
	c-11.7-43.7-23-87.4-35.8-130.7c-2.8-9.6-10.7-17.8-16.5-26.2c-0.8-1.1-4-1.2-6-1C253,495.6,152.5,513.2,52,531
	c-16.5,2.9-33,5.8-50.2,7.2c99.9-46.4,199.9-92.7,300.4-139.3c-64.5-89.8-128.7-178.9-192.8-268c0.3-0.6,0.6-1,1-1.5
	c61.9,28.6,123.8,57.3,187.6,86.9c-19.7-72.6-38.9-143.5-58.2-214.3c0.6-0.3,1.1-0.6,1.5-0.7c6,9.6,11.9,19.3,17.8,28.9
	c45.9,75.6,91.7,151.4,138,227.1c2.6,4.3,7.4,8.2,11.9,10.4c27.1,13,54.4,25.7,81.7,37.9c3.5,1.5,8.6,1.5,12.1,0.1
	c28.2-12.6,56.2-25.5,84.1-39c4.3-2.1,8.1-6.5,10.7-10.7C648.3,172.7,698.8,89.5,749.3,6.2c1-1.7,2.1-3.2,4.7-4.2
	c-19.2,70.8-38.4,141.7-58.2,214.3c63.7-29.6,125.6-58.2,187.5-86.9l1.2,1.2C820.5,219.8,756.4,308.9,691.7,399
	c100.6,46.6,200.7,93.1,300.6,139.5c-0.1,0.4-0.4,1-0.6,1.4c-40.9-7.2-81.9-14.3-122.8-21.5c-76.1-13.3-152.1-26.8-228.2-40
	c-2.6-0.4-6.7,1.5-8.6,3.6c-11.9,12.4-16.5,28.2-20.7,44.3c-9.7,36.8-19.8,73.4-29.6,110.2c-1,4-0.8,8.7,0.3,12.6
	c23,76.9,46.4,153.6,69.7,230.4c0.4,1.2,0.7,2.5-0.3,4.6c-32.8-45.4-65.4-90.9-99.5-138.1c-18.3,67.5-36.2,133.2-54.1,199h-1.8
	c-17.9-65.8-35.8-131.4-54.1-198.9c-33.9,46.9-66.6,92.6-99.4,138.1C341.8,883.8,341.4,883.5,340.8,883.2L340.8,883.2z M670.1,388.6
	c48.2-66.9,95.9-133.4,143.8-199.9c-41.5,17.6-81.7,36.2-121.9,55.1c-2.6,1.2-4.9,5-5.8,8.1c-5.4,19-10.4,38.3-15.7,57.5
	c-6.4,23.3-12.8,46.6-19.2,70.5C657.6,382.9,663.5,385.7,670.1,388.6L670.1,388.6z M181.2,187.7c-0.4,0.4-0.8,0.8-1.2,1.1
	c47.9,66.6,95.8,133.1,143.8,199.7c6.8-3.2,12.5-5.8,17.8-8.3c0.1-1.2,0.4-1.8,0.4-2.2c-11.7-42.9-23.2-85.6-35-128.4
	c-0.7-2.4-3.3-5-5.7-6.1C261.2,224.8,221.2,206.3,181.2,187.7L181.2,187.7z M496.1,857.3c1.4-2.2,1.9-2.8,2.1-3.5
	c11.5-42.5,23.2-84.9,34.4-127.6c0.8-3.1-0.7-7.5-2.6-10.4c-9.3-13.6-19.2-26.9-28.9-40.4c-1.4-1.8-2.9-3.6-4.9-5.7
	c-8.1,11.1-14.6,22.2-23,31.4c-12.2,13.3-13.9,26.5-8.3,43.9C476.9,781.5,485.7,818.8,496.1,857.3z M496.8,629.2
	c12.1-16.8,23.6-32.2,34.4-48.2c2.1-3.1,2.9-8.3,1.9-11.8c-10.5-35.9-21.5-71.8-32.3-107.6c-0.8-2.9-2.2-5.8-3.5-9.3
	c-1.2,1.5-1.7,1.9-1.8,2.4c-12.1,39.1-24.2,78.4-35.9,117.7c-0.6,1.8,0,4.4,1.1,6C472.1,595.1,484.1,611.6,496.8,629.2L496.8,629.2z
	 M517.5,432.7c31.1,5.4,60.5,10.7,90.8,16c4.9-17.8,9.7-34.8,14.2-52.2c0.4-1.4-1.1-4.4-2.4-5.1c-19.8-9.4-39.8-18.6-60.4-28.2
	C545.6,386.5,531.8,409,517.5,432.7z M476,432.7c-13.7-22.6-26.8-44.4-40.3-65.8c-0.8-1.2-4.9-1.9-6.7-1.1
	c-18.3,8.2-36.6,16.7-54.7,25.4c-1.7,0.8-3.6,3.9-3.2,5.3c4.4,17.3,9.2,34.4,14,52.3C415.6,443.3,445.3,438.1,476,432.7L476,432.7z
	 M660.1,258.4c-17.6,8.2-33.4,15.5-49.3,23c-1,0.4-1.9,1.1-2.5,2.1c-12.1,19.6-24,39.3-36.4,59.7c19.7,9.2,38.6,17.9,57.9,26.8
	C639.9,332.6,649.7,296.4,660.1,258.4z M421.8,343.2c-12.4-20.3-24.2-39.7-35.9-59.1c-0.6-0.8-1.4-1.8-2.4-2.2
	c-16-7.5-32.1-15-50-23.3c10.4,38.3,20.3,74.7,30.4,111.7C383.7,360.8,402.3,352.2,421.8,343.2z M819.4,485.7
	c0.1-0.6,0.3-1.2,0.6-1.8c-47.3-21.9-94.7-43.9-142.3-65.9c-9.3,12.9-18,25-27.3,38C707.8,466.2,763.6,475.9,819.4,485.7
	L819.4,485.7z M316,418c-48,22.2-95.2,44.1-142.4,65.9c0.1,0.6,0.3,1.1,0.6,1.8c56.1-9.9,112.1-19.7,169.2-29.7
	C333.8,442.7,325.2,430.6,316,418L316,418z M441.2,551.8c9.7-32.1,18.9-62.5,28.6-94.4c-26.9,4.7-52.2,9.2-79.8,14
	c4.2,9.3,6.9,17.8,11.5,25c8.1,12.5,17.2,24.3,26,36.4C431.6,538.7,435.9,544.7,441.2,551.8z M523.8,457.4
	c9.7,32.2,19,62.5,28.7,94.5c15.4-21.5,30.3-41.4,44-61.9c3.3-5,3.6-12.2,5.4-18.9C575.7,466.6,550.8,462.1,523.8,457.4L523.8,457.4
	z M496.8,421.7c14.3-23.6,27.8-45.8,41.5-68.4c-13.2-6.1-25.4-11.8-37.6-17.3c-1.8-0.8-4.6-1.4-6.1-0.7c-13,5.8-25.8,11.9-39.1,18.2
	C469.2,376.2,482.5,398.4,496.8,421.7L496.8,421.7z M451.5,692.4c10.4-14.6,19.8-27.3,28.9-40.5c1-1.4,0.3-4.7-0.8-6.2
	c-5.7-8.5-11.8-16.7-17.8-25c-3.7-5.1-7.5-10.3-12.1-16.5c-3.6,12.1-6.8,22.3-9.7,32.6c-0.8,3.1-1.7,6.7-0.8,9.6
	C442.7,661,446.9,675.6,451.5,692.4L451.5,692.4z M541.7,691.6c10.3-29.4,19.7-57.3,1-85.8c-9.7,13.5-19.7,27.3-29.6,41.2
	c-0.8,1.1-0.6,3.9,0.3,5C522.4,664.9,531.8,677.8,541.7,691.6L541.7,691.6z M632.2,243.8c0.3,0.4,0.6,1,0.8,1.4
	c10.7-5,21.4-9.6,31.8-15c2.2-1.1,3.7-4.4,4.6-7.1c4.2-14.3,8-28.6,11.9-43c2.4-8.7,4.6-17.5,6.9-26.2l-1.2-0.4
	C668.7,183.6,650.5,213.7,632.2,243.8L632.2,243.8z M306.4,153.2c-0.4,0.1-0.8,0.4-1.2,0.6c6.5,24.2,13,48.3,19.7,72.3
	c0.4,1.7,2.1,3.5,3.5,4.2c10.5,5.1,21.2,10,31.9,14.9c0.4-0.4,0.8-0.8,1.1-1.2C343.1,213.6,324.7,183.3,306.4,153.2z M403.8,755.7
	c0.6,0.3,1.1,0.6,1.5,0.7c9.2-12.6,18.2-25.3,27.2-38c0.7-1,1.1-2.6,0.7-3.9c-2.4-8.9-5-17.8-7.5-26.6h-1.5
	C417.5,710.6,410.7,733.1,403.8,755.7z M569.3,688c-0.6,0.1-1.1,0.3-1.8,0.4c-2.4,8.5-4.7,16.8-6.9,25.3c-0.4,1.4-0.4,3.6,0.4,4.7
	c9,12.8,18.2,25.5,27.2,38.2c0.6-0.3,1-0.6,1.5-1C582.9,732.9,576.1,710.4,569.3,688L569.3,688z M469.1,321.3
	c-16-7.4-30-13.7-43.9-20.3c-0.3,0.6-0.6,1-0.8,1.5c6.2,10.3,12.5,20.4,18.9,30.8C451.9,329.3,459.5,325.7,469.1,321.3z
	 M550.4,333.3c6.5-10.7,12.6-20.8,18.9-31.1c-0.4-0.4-0.7-0.8-1.1-1.2c-14,6.5-27.9,12.9-43.7,20.3
	C534.3,325.7,542.1,329.3,550.4,333.3L550.4,333.3z M415.2,559.2c3.5,12.8,6.9,25.7,10.5,38.4C439.4,580.4,425.1,570.4,415.2,559.2z
	 M567.9,597.6c3.6-13.2,6.9-25.8,10.3-38.4C568.9,570.4,554.2,580.2,567.9,597.6z M644.9,402.9c-2.6,9.9-5,19-7.5,28
	c0.6,0.1,1,0.4,1.5,0.6c5.6-7.6,11-15.3,16.9-23.5C652,406.3,648.8,404.8,644.9,402.9L644.9,402.9z M337.6,408.1
	c6.1,8.5,11.7,16.1,17.2,23.7c0.4-0.3,0.8-0.4,1.4-0.7c-2.5-9.2-5-18.5-7.6-28.3C344.4,405,341.5,406.3,337.6,408.1z"/>
</svg>
