<svg xmlns="http://www.w3.org/2000/svg" viewBox="0 0 353.7 54.7">
    <path class="nav__main--logo" d="M14.4 35.2c.5 6.1 4.5 8.7 13 8.7 6.9 0 10.8-2.2 10.8-6.1 0-3.5-2.5-4.5-14.8-6.4-11.2-1.7-12.8-2.1-16.2-4-3.4-2-5.4-5.6-5.4-10C1.8 7.5 10.4 2 25.6 2 35 2 41.3 3.9 45.3 7.8c3 2.9 4.2 5.6 4.5 9.7h-13c-.7-4.6-4-6.5-11.2-6.5-7.1 0-10.9 1.7-10.9 5 0 2 1.1 3.2 3.6 4 2.1.6 4 .9 12.2 2.2 9.8 1.5 13 2.4 16.1 4.3 3.2 2 5.1 5.8 5.1 10.1C51.7 47 42.3 53 26.1 53c-15.9 0-24.2-5.9-25-17.6h13.3v-.2zM54.3 3.3h11.3v20.6L89.3 3.3h16.6L82.3 22.8l24.9 28.6H91.8L73.3 29.7l-7.8 6.7v14.9H54.3v-48zM130.1 32.3l-23.2-29h14.7L136 22.6l14.1-19.3h14.1l-22.7 29.1v19h-11.3V32.3h-.1zM188.2 32.3L165 3.3h14.7l14.4 19.3 14.1-19.3h14.1l-22.7 29.1v19h-11.3V32.3h-.1zM246.3 32.3l-23.2-29h14.7l14.4 19.3 14.1-19.3h14.1l-22.7 29.1v19h-11.3l-.1-19.1zM281.9 3.3h15.5l19.4 35.3 19.1-35.3h15.7v48.1h-11.4V18l-18.4 33.4h-10.4L292.9 18v33.4h-11V3.3z"/>
</svg>