<svg xmlns="http://www.w3.org/2000/svg" viewBox="0 0 1000 1000">
    <path class="welcome__star" d="M387.5 823.6c3-10.2 6-20.4 9.1-30.5 13.9-46 27.9-92 41.7-138 .9-3 1.1-6.7.3-9.7-8.4-31.5-16.6-63-25.8-94.2-2-6.9-7.7-12.8-11.9-18.9-.6-.8-2.9-.9-4.3-.7-72.4 12.7-144.8 25.4-217.2 38.2-11.9 2.1-23.8 4.2-36.2 5.2 72-33.4 144-66.8 216.4-100.4-46.5-64.7-92.7-128.9-138.9-193.1.2-.4.4-.7.7-1.1C266 301 310.6 321.7 356.6 343c-14.2-52.3-28-103.4-41.9-154.4.4-.2.8-.4 1.1-.5 4.3 6.9 8.6 13.9 12.8 20.8 33.1 54.5 66.1 109.1 99.4 163.6 1.9 3.1 5.3 5.9 8.6 7.5 19.5 9.4 39.2 18.5 58.9 27.3 2.5 1.1 6.2 1.1 8.7.1 20.3-9.1 40.5-18.4 60.6-28.1 3.1-1.5 5.8-4.7 7.7-7.7 36.5-59.9 72.9-119.9 109.3-179.9.7-1.2 1.5-2.3 3.4-3-13.8 51-27.7 102.1-41.9 154.4 45.9-21.3 90.5-41.9 135.1-62.6l.9.9c-46.2 64.2-92.4 128.4-139 193.3 72.5 33.6 144.6 67.1 216.6 100.5-.1.3-.3.7-.4 1-29.5-5.2-59-10.3-88.5-15.5-54.8-9.6-109.6-19.3-164.4-28.8-1.9-.3-4.8 1.1-6.2 2.6-8.6 8.9-11.9 20.3-14.9 31.9-7 26.5-14.3 52.9-21.3 79.4-.7 2.9-.6 6.3.2 9.1 16.6 55.4 33.4 110.7 50.2 166 .3.9.5 1.8-.2 3.3-23.6-32.7-47.1-65.5-71.7-99.5-13.2 48.6-26.1 96-39 143.4h-1.3c-12.9-47.4-25.8-94.7-39-143.3-24.4 33.8-48 66.7-71.6 99.5-.6-.3-.9-.5-1.3-.7zm237.2-356.4c34.7-48.2 69.1-96.1 103.6-144-29.9 12.7-58.9 26.1-87.8 39.7-1.9.9-3.5 3.6-4.2 5.8-3.9 13.7-7.5 27.6-11.3 41.4-4.6 16.8-9.2 33.6-13.8 50.8 4.5 2.2 8.8 4.2 13.5 6.3zM272.5 322.5c-.3.3-.6.6-.9.8 34.5 48 69 95.9 103.6 143.9 4.9-2.3 9-4.2 12.8-6 .1-.9.3-1.3.3-1.6-8.4-30.9-16.7-61.7-25.2-92.5-.5-1.7-2.4-3.6-4.1-4.4-28.9-13.5-57.7-26.8-86.5-40.2zm226.9 482.4c1-1.6 1.4-2 1.5-2.5 8.3-30.6 16.7-61.2 24.8-91.9.6-2.2-.5-5.4-1.9-7.5-6.7-9.8-13.8-19.4-20.8-29.1-1-1.3-2.1-2.6-3.5-4.1-5.8 8-10.5 16-16.6 22.6-8.8 9.6-10 19.1-6 31.6 8.6 26.3 15 53.2 22.5 80.9zm.5-164.3c8.7-12.1 17-23.2 24.8-34.7 1.5-2.2 2.1-6 1.4-8.5-7.6-25.9-15.5-51.7-23.3-77.5-.6-2.1-1.6-4.2-2.5-6.7-.9 1.1-1.2 1.4-1.3 1.7-8.7 28.2-17.4 56.5-25.9 84.8-.4 1.3 0 3.2.8 4.3 8.2 12 16.8 23.9 26 36.6zM514.8 499c22.4 3.9 43.6 7.7 65.4 11.5 3.5-12.8 7-25.1 10.2-37.6.3-1-.8-3.2-1.7-3.7-14.3-6.8-28.7-13.4-43.5-20.3-10.2 16.8-20.1 33-30.4 50.1zm-29.9 0c-9.9-16.3-19.3-32-29-47.4-.6-.9-3.5-1.4-4.8-.8-13.2 5.9-26.4 12-39.4 18.3-1.2.6-2.6 2.8-2.3 3.8 3.2 12.5 6.6 24.8 10.1 37.7 21.9-4 43.3-7.7 65.4-11.6zm132.6-125.6c-12.7 5.9-24.1 11.2-35.5 16.6-.7.3-1.4.8-1.8 1.5-8.7 14.1-17.3 28.3-26.2 43 14.2 6.6 27.8 12.9 41.7 19.3 7.3-26.9 14.3-53 21.8-80.4zm-171.7 61.1c-8.9-14.6-17.4-28.6-25.9-42.6-.4-.6-1-1.3-1.7-1.6-11.5-5.4-23.1-10.8-36-16.8 7.5 27.6 14.6 53.8 21.9 80.5 14.3-6.8 27.7-13 41.7-19.5zm286.5 102.7c.1-.4.2-.9.4-1.3-34.1-15.8-68.2-31.6-102.5-47.5-6.7 9.3-13 18-19.7 27.4 41.4 7.3 81.6 14.3 121.8 21.4zm-362.7-48.8c-34.6 16-68.6 31.8-102.6 47.5.1.4.2.8.4 1.3 40.4-7.1 80.8-14.2 121.9-21.4-6.9-9.6-13.1-18.3-19.7-27.4zm90.2 96.4c7-23.1 13.6-45 20.6-68-19.4 3.4-37.6 6.6-57.5 10.1 3 6.7 5 12.8 8.3 18 5.8 9 12.4 17.5 18.7 26.2 3 4.3 6.1 8.6 9.9 13.7zm59.5-68c7 23.2 13.7 45 20.7 68.1 11.1-15.5 21.8-29.8 31.7-44.6 2.4-3.6 2.6-8.8 3.9-13.6-18.9-3.3-36.8-6.5-56.3-9.9zm-19.4-25.7c10.3-17 20-33 29.9-49.3-9.5-4.4-18.3-8.5-27.1-12.5-1.3-.6-3.3-1-4.4-.5-9.4 4.2-18.6 8.6-28.2 13.1 9.9 16.4 19.5 32.4 29.8 49.2zm-32.7 195c7.5-10.5 14.3-19.7 20.8-29.2.7-1 .2-3.4-.6-4.5-4.1-6.1-8.5-12-12.8-18-2.7-3.7-5.4-7.4-8.7-11.9-2.6 8.7-4.9 16.1-7 23.5-.6 2.2-1.2 4.8-.6 6.9 2.6 10.6 5.6 21.1 8.9 33.2zm65-.6c7.4-21.2 14.2-41.3.7-61.8-7 9.7-14.2 19.7-21.3 29.7-.6.8-.4 2.8.2 3.6 6.5 9.3 13.3 18.6 20.4 28.5zm65.2-322.6c.2.3.4.7.6 1 7.7-3.6 15.4-6.9 22.9-10.8 1.6-.8 2.7-3.2 3.3-5.1 3-10.3 5.8-20.6 8.6-31 1.7-6.3 3.3-12.6 5-18.9l-.9-.3c-13.2 21.7-26.3 43.4-39.5 65.1zm-234.7-65.3c-.3.1-.6.3-.9.4 4.7 17.4 9.4 34.8 14.2 52.1.3 1.2 1.5 2.5 2.5 3 7.6 3.7 15.3 7.2 23 10.7.3-.3.6-.6.8-.9-13.2-21.8-26.4-43.6-39.6-65.3zm70.2 434.1c.4.2.8.4 1.1.5 6.6-9.1 13.1-18.2 19.6-27.4.5-.7.8-1.9.5-2.8-1.7-6.4-3.6-12.8-5.4-19.2h-1.1c-4.9 16.4-9.8 32.6-14.7 48.9zm119.2-48.8c-.4.1-.8.2-1.3.3-1.7 6.1-3.4 12.1-5 18.2-.3 1-.3 2.6.3 3.4 6.5 9.2 13.1 18.4 19.6 27.5.4-.2.7-.4 1.1-.7-4.9-16.3-9.8-32.5-14.7-48.7zm-72.2-264.2c-11.5-5.3-21.6-9.9-31.6-14.6-.2.4-.4.7-.6 1.1 4.5 7.4 9 14.7 13.6 22.2 6.2-2.9 11.7-5.5 18.6-8.7zm58.6 8.7c4.7-7.7 9.1-15 13.6-22.4-.3-.3-.5-.6-.8-.9-10.1 4.7-20.1 9.3-31.5 14.6 7.1 3.2 12.7 5.8 18.7 8.7zm-97.4 162.7c2.5 9.2 5 18.5 7.6 27.7 9.8-12.4-.5-19.6-7.6-27.7zm110 27.7c2.6-9.5 5-18.6 7.4-27.7-6.7 8.1-17.3 15.2-7.4 27.7zm55.5-140.3c-1.9 7.1-3.6 13.7-5.4 20.2.4.1.7.3 1.1.4 4-5.5 7.9-11 12.2-16.9-2.8-1.2-5.1-2.3-7.9-3.7zm-221.4 3.8c4.4 6.1 8.4 11.6 12.4 17.1.3-.2.6-.3 1-.5-1.8-6.6-3.6-13.3-5.5-20.4-3 1.5-5.1 2.5-7.9 3.8z">
    </path>
</svg>