<svg xmlns="http://www.w3.org/2000/svg" viewBox="0 0 992.3 945">
    <path d="M340.8 883.2c4.2-14.2 8.3-28.3 12.6-42.3 19.3-63.8 38.7-127.7 57.9-191.5 1.2-4.2 1.5-9.3.4-13.5-11.7-43.7-23-87.4-35.8-130.7-2.8-9.6-10.7-17.8-16.5-26.2-.8-1.1-4-1.2-6-1C253 495.6 152.5 513.2 52 531c-16.5 2.9-33 5.8-50.2 7.2 99.9-46.4 199.9-92.7 300.4-139.3-64.5-89.8-128.7-178.9-192.8-268 .3-.6.6-1 1-1.5 61.9 28.6 123.8 57.3 187.6 86.9C278.3 143.7 259.1 72.8 239.8 2c.6-.3 1.1-.6 1.5-.7 6 9.6 11.9 19.3 17.8 28.9 45.9 75.6 91.7 151.4 138 227.1 2.6 4.3 7.4 8.2 11.9 10.4 27.1 13 54.4 25.7 81.7 37.9 3.5 1.5 8.6 1.5 12.1.1 28.2-12.6 56.2-25.5 84.1-39 4.3-2.1 8.1-6.5 10.7-10.7C648.3 172.7 698.8 89.5 749.3 6.2c1-1.7 2.1-3.2 4.7-4.2-19.2 70.8-38.4 141.7-58.2 214.3 63.7-29.6 125.6-58.2 187.5-86.9l1.2 1.2c-64 89.2-128.1 178.3-192.8 268.4 100.6 46.6 200.7 93.1 300.6 139.5-.1.4-.4 1-.6 1.4-40.9-7.2-81.9-14.3-122.8-21.5-76.1-13.3-152.1-26.8-228.2-40-2.6-.4-6.7 1.5-8.6 3.6-11.9 12.4-16.5 28.2-20.7 44.3-9.7 36.8-19.8 73.4-29.6 110.2-1 4-.8 8.7.3 12.6 23 76.9 46.4 153.6 69.7 230.4.4 1.2.7 2.5-.3 4.6-32.8-45.4-65.4-90.9-99.5-138.1-18.3 67.5-36.2 133.2-54.1 199h-1.8c-17.9-65.8-35.8-131.4-54.1-198.9-33.9 46.9-66.6 92.6-99.4 138.1-.8-.4-1.2-.7-1.8-1zm329.3-494.6c48.2-66.9 95.9-133.4 143.8-199.9-41.5 17.6-81.7 36.2-121.9 55.1-2.6 1.2-4.9 5-5.8 8.1-5.4 19-10.4 38.3-15.7 57.5-6.4 23.3-12.8 46.6-19.2 70.5 6.3 3 12.2 5.8 18.8 8.7zM181.2 187.7c-.4.4-.8.8-1.2 1.1 47.9 66.6 95.8 133.1 143.8 199.7 6.8-3.2 12.5-5.8 17.8-8.3.1-1.2.4-1.8.4-2.2-11.7-42.9-23.2-85.6-35-128.4-.7-2.4-3.3-5-5.7-6.1-40.1-18.7-80.1-37.2-120.1-55.8zm314.9 669.6c1.4-2.2 1.9-2.8 2.1-3.5 11.5-42.5 23.2-84.9 34.4-127.6.8-3.1-.7-7.5-2.6-10.4-9.3-13.6-19.2-26.9-28.9-40.4-1.4-1.8-2.9-3.6-4.9-5.7-8.1 11.1-14.6 22.2-23 31.4-12.2 13.3-13.9 26.5-8.3 43.9 12 36.5 20.8 73.8 31.2 112.3zm.7-228.1c12.1-16.8 23.6-32.2 34.4-48.2 2.1-3.1 2.9-8.3 1.9-11.8-10.5-35.9-21.5-71.8-32.3-107.6-.8-2.9-2.2-5.8-3.5-9.3-1.2 1.5-1.7 1.9-1.8 2.4-12.1 39.1-24.2 78.4-35.9 117.7-.6 1.8 0 4.4 1.1 6 11.4 16.7 23.4 33.2 36.1 50.8zm20.7-196.5c31.1 5.4 60.5 10.7 90.8 16 4.9-17.8 9.7-34.8 14.2-52.2.4-1.4-1.1-4.4-2.4-5.1-19.8-9.4-39.8-18.6-60.4-28.2-14.1 23.3-27.9 45.8-42.2 69.5zm-41.5 0c-13.7-22.6-26.8-44.4-40.3-65.8-.8-1.2-4.9-1.9-6.7-1.1-18.3 8.2-36.6 16.7-54.7 25.4-1.7.8-3.6 3.9-3.2 5.3 4.4 17.3 9.2 34.4 14 52.3 30.5-5.5 60.2-10.7 90.9-16.1zm184.1-174.3c-17.6 8.2-33.4 15.5-49.3 23-1 .4-1.9 1.1-2.5 2.1-12.1 19.6-24 39.3-36.4 59.7 19.7 9.2 38.6 17.9 57.9 26.8 10.1-37.4 19.9-73.6 30.3-111.6zm-238.3 84.8c-12.4-20.3-24.2-39.7-35.9-59.1-.6-.8-1.4-1.8-2.4-2.2-16-7.5-32.1-15-50-23.3 10.4 38.3 20.3 74.7 30.4 111.7 19.8-9.5 38.4-18.1 57.9-27.1zm397.6 142.5c.1-.6.3-1.2.6-1.8C772.7 462 725.3 440 677.7 418c-9.3 12.9-18 25-27.3 38 57.4 10.2 113.2 19.9 169 29.7zM316 418c-48 22.2-95.2 44.1-142.4 65.9.1.6.3 1.1.6 1.8 56.1-9.9 112.1-19.7 169.2-29.7-9.6-13.3-18.2-25.4-27.4-38zm125.2 133.8c9.7-32.1 18.9-62.5 28.6-94.4-26.9 4.7-52.2 9.2-79.8 14 4.2 9.3 6.9 17.8 11.5 25 8.1 12.5 17.2 24.3 26 36.4 4.1 5.9 8.4 11.9 13.7 19zm82.6-94.4c9.7 32.2 19 62.5 28.7 94.5 15.4-21.5 30.3-41.4 44-61.9 3.3-5 3.6-12.2 5.4-18.9-26.2-4.5-51.1-9-78.1-13.7zm-27-35.7c14.3-23.6 27.8-45.8 41.5-68.4-13.2-6.1-25.4-11.8-37.6-17.3-1.8-.8-4.6-1.4-6.1-.7-13 5.8-25.8 11.9-39.1 18.2 13.7 22.7 27 44.9 41.3 68.2zm-45.3 270.7c10.4-14.6 19.8-27.3 28.9-40.5 1-1.4.3-4.7-.8-6.2-5.7-8.5-11.8-16.7-17.8-25-3.7-5.1-7.5-10.3-12.1-16.5-3.6 12.1-6.8 22.3-9.7 32.6-.8 3.1-1.7 6.7-.8 9.6 3.5 14.6 7.7 29.2 12.3 46zm90.2-.8c10.3-29.4 19.7-57.3 1-85.8-9.7 13.5-19.7 27.3-29.6 41.2-.8 1.1-.6 3.9.3 5 9 12.9 18.4 25.8 28.3 39.6zm90.5-447.8c.3.4.6 1 .8 1.4 10.7-5 21.4-9.6 31.8-15 2.2-1.1 3.7-4.4 4.6-7.1 4.2-14.3 8-28.6 11.9-43 2.4-8.7 4.6-17.5 6.9-26.2l-1.2-.4c-18.3 30.1-36.5 60.2-54.8 90.3zm-325.8-90.6c-.4.1-.8.4-1.2.6 6.5 24.2 13 48.3 19.7 72.3.4 1.7 2.1 3.5 3.5 4.2 10.5 5.1 21.2 10 31.9 14.9.4-.4.8-.8 1.1-1.2-18.3-30.4-36.7-60.7-55-90.8zm97.4 602.5c.6.3 1.1.6 1.5.7 9.2-12.6 18.2-25.3 27.2-38 .7-1 1.1-2.6.7-3.9-2.4-8.9-5-17.8-7.5-26.6h-1.5c-6.7 22.7-13.5 45.2-20.4 67.8zM569.3 688c-.6.1-1.1.3-1.8.4-2.4 8.5-4.7 16.8-6.9 25.3-.4 1.4-.4 3.6.4 4.7 9 12.8 18.2 25.5 27.2 38.2.6-.3 1-.6 1.5-1-6.8-22.7-13.6-45.2-20.4-67.6zM469.1 321.3c-16-7.4-30-13.7-43.9-20.3-.3.6-.6 1-.8 1.5 6.2 10.3 12.5 20.4 18.9 30.8 8.6-4 16.2-7.6 25.8-12zm81.3 12c6.5-10.7 12.6-20.8 18.9-31.1-.4-.4-.7-.8-1.1-1.2-14 6.5-27.9 12.9-43.7 20.3 9.8 4.4 17.6 8 25.9 12zM415.2 559.2c3.5 12.8 6.9 25.7 10.5 38.4 13.7-17.2-.6-27.2-10.5-38.4zm152.7 38.4c3.6-13.2 6.9-25.8 10.3-38.4-9.3 11.2-24 21-10.3 38.4zm77-194.7c-2.6 9.9-5 19-7.5 28 .6.1 1 .4 1.5.6 5.6-7.6 11-15.3 16.9-23.5-3.8-1.7-7-3.2-10.9-5.1zm-307.3 5.2c6.1 8.5 11.7 16.1 17.2 23.7.4-.3.8-.4 1.4-.7-2.5-9.2-5-18.5-7.6-28.3-4.2 2.2-7.1 3.5-11 5.3z"/>
</svg>