<svg xmlns="http://www.w3.org/2000/svg" viewBox="0 0 782 782"><path d="M.1 442.6c78.7-36.5 157.3-73.1 237.1-109.9C186 261.9 135.5 191.5 84.8 121.1c.3-.4.5-.8.7-1.2 49 22.5 97.8 45.3 148.2 68.6-15.6-57.4-30.7-113.4-45.8-169.3.4-.3.8-.4 1.2-.7 4.7 7.7 9.4 15.2 14.1 22.9 36.2 59.8 72.4 119.4 108.9 179.2 2.1 3.4 5.7 6.6 9.4 8.2 21.4 10.3 42.9 20.3 64.6 29.8 2.7 1.2 6.8 1.3 9.5 0 22.3-9.9 44.4-20.2 66.3-30.7 3.4-1.7 6.4-5.1 8.3-8.5C510.2 153.8 550 88 589.9 22.5c.8-1.3 1.6-2.5 3.8-3.3-15.1 55.9-30.3 111.9-45.8 169.2 50.1-23.3 99.1-45.8 148-68.6.4.3.7.7 1 .9-50.5 70.3-101.2 140.7-152.3 211.8C624.1 369.4 702.9 406 782 442.6c-.1.4-.3.8-.4 1-22.5-3.9-44.8-7.8-67.3-11.9-69.9-12.4-139.8-24.6-209.7-36.7-2.1-.4-5.3 1-6.9 2.6-9.2 9.8-13 22-16.5 34.9-7.7 29-15.6 58-23.3 87-.9 3.3-.7 7.3.3 10.6l54.3 180c.5 1.6.8 3.1.3 5.2-25.9-35.9-51.7-71.9-78.5-109-14.6 53.1-28.7 105.1-42.7 157-.5 0-1 .1-1.4.1-14.1-52-28.3-103.7-42.7-157.2-26.7 37-52.6 73.1-78.5 109-.4-.3-.8-.4-1.2-.7 5.6-18.4 11.1-37 16.7-55.4 13-43.2 26.2-86.5 39.3-129.9.9-2.9.9-6.6.1-9.4-9.2-34.6-18.2-69.4-28.5-103.9-2.2-7.7-8.5-14.1-13.2-20.7-.7-.9-3.1-.8-4.7-.5C185.5 411 93.7 427.1 2 443.3c-.7.1-1.3.1-1.8.1.1-.2 0-.6-.1-.8 0 0 0 0 0 0zm527.5-117.8c38-53 75.9-105.4 114.5-159-2.5.8-3.3 1-3.9 1.3-30.9 14.2-61.6 28.5-92.3 43.1-2.5 1.2-4.7 4.6-5.6 7.2-7.3 26.1-14.2 52.1-21.4 78-2 7.4-4 15.1-6.1 22.5 5 2.3 9.6 4.4 14.8 6.9h0zm-258.7-7.1C259.5 283 250.3 249 240.8 215c-.7-2.2-3.3-4.6-5.6-5.6-17.8-8.5-35.8-16.7-53.8-25.1l-40-18.4c-.3.3-.5.7-.8.9 37.8 52.6 75.5 105.1 113.4 157.7 5.4-2.3 9.8-4.4 14.9-6.8h0zm121.9 228.6c-9.2 12.9-17.6 24.6-26.2 36.3-2.7 3.5-3 6.6-1.8 10.8 6.6 24 12.9 47.8 19.4 71.6 2.6 9.5 5.2 18.9 8.2 29.3 1-1.4 1.4-2 1.6-2.5 9.2-33.6 18.2-67.1 27.2-100.7.5-1.8.4-4.6-.5-6.1-8.9-12.6-18.1-25.3-27.9-38.7h0zm-.1-31.8c9.4-13 18.2-25.4 27.2-37.5 2.5-3.3 2.9-6.1 1.7-10.3-8.7-28-17.2-56.1-25.7-84.3-.8-2.3-1.7-4.7-2.6-7.2-1 .7-1.6.8-1.7 1.2-9.5 31.1-19.3 62.4-28.7 93.4-.4 1.2 0 3.1.8 4.2 9.6 13.6 19.1 26.6 29 40.5h0zm88-142.6c3.9-14.1 7.7-27.2 10.9-40.5.4-1.3-.7-4-1.7-4.7-15.6-7.4-31.4-14.7-47.8-22.3-11.1 18.4-21.9 36.2-33.2 54.7 24.8 4.7 48 8.7 71.8 12.8zm-175.9 0c24-4.2 47.4-8.3 71.6-12.6-10.8-17.7-20.8-34.6-31.4-51.4-.8-1.2-4.2-2.1-5.6-1.4-14.6 6.4-28.8 13-43.2 19.9-1.3.7-2.9 3-2.5 4.2 3.5 13.7 7.3 27.5 11.1 41.3zm193-62c7.9-29.6 15.6-58.2 24-88.1-13.7 6.3-25.7 11.9-37.6 17.6-1.3.7-2.7 1.6-3.5 2.7-9.4 15.2-18.8 30.6-28.3 46.8 14.9 7 29.8 13.7 45.4 21h0zm-164.4-21.1c-5.6-9.2-11.5-17.2-15.5-26.1-7.8-17.1-20.3-28-38-33.6-5.1-1.6-9.9-4.6-16.2-7.2 8.2 30.2 16 58.7 24 88.1 15.6-7.1 30.3-14.1 45.7-21.2h0zm180.5 89.1c45.3 7.9 89.6 15.6 133.8 23.6.1-.4.3-.9.4-1.3-37.4-17.3-74.9-34.6-112.5-52.1-7.1 9.6-14.1 19.4-21.7 29.8zm-242.2 0c-7.7-10.6-14.6-20.2-21.5-30.1-37.9 17.6-75.2 34.9-112.4 52.1.1.4.3.9.5 1.3 43.9-7.7 87.9-15.3 133.4-23.3zm36.7 12.1c3.4 7.4 5.6 14.1 9.2 19.8 6.1 9.8 13.4 18.8 19.9 28.3 3.5 4.8 7.2 9.8 11.3 15.6 7.7-25.4 15-49.4 22.5-74.5-21 3.5-40.8 6.9-62.9 10.8h0zm105.8-11c7.7 25.4 15.1 49.4 22.5 74.6 12.1-17.1 23.8-32.7 34.8-49 2.6-3.9 2.9-9.8 4.3-15-20.7-3.5-40.4-6.9-61.6-10.6h0zM358 296.8c11.1 18.2 21.8 35.7 32.8 53.8 11.3-18.6 21.9-35.9 32.7-54.1-10.6-5.1-20.7-9.8-31-14.5-1.2-.5-3-.3-4.3.4-9.9 4.9-19.8 9.5-30.2 14.4h0zm-4.3 197.8c-2 6.3-3.5 10.9-4.8 15.8-1.4 5.2-4.7 10.8-3.8 15.6 2.2 12.4 6.3 24.6 9.9 38.3 8.2-11.5 15.6-21.8 22.9-31.9.7-.9.8-3 .1-3.9-7.8-11-15.6-21.8-24.3-33.9h0zm74.1 0c-8.7 11.9-16.5 22.5-24 33.5-.8 1.2-.3 4 .7 5.6 5.2 7.7 10.8 15.2 16.2 22.9 1.7 2.3 3.4 4.6 5.7 7.7 3.5-12.9 6.6-24.1 9.8-35.6.5-2 .5-4.6 0-6.4-2.4-8.8-5.3-17.5-8.4-27.7h0zm114.1-355.2l-1.2-.4c-14.5 23.8-28.8 47.8-43.2 71.5 9-2.9 17.1-6.4 24.6-10.3 1.8-.9 3.8-3 4.6-5.1 5.3-18.4 10.4-37.1 15.2-55.7h0zm-259.2 71.8c.4-.3.8-.7 1.2-.9-14.6-23.8-28.8-47.8-43.4-71.5 4 19.3 9.2 38.2 14.6 56.9.5 1.7 2.5 3.5 4.2 4.6 7.6 3.7 15.6 7.2 23.4 10.9h0zm52.2 350c-.4-.1-.9-.3-1.3-.3-5.3 17.7-10.8 35.6-16.2 53.5 8.3-9.2 15.5-19.1 22.4-29 .8-1 .9-2.9.5-4.2-1.6-6.9-3.5-13.4-5.4-20zm113-.8c-8.2 15-7.8 22.8 1 35 4.7 6.4 9.2 12.9 14.1 19.3l1.2-.8c-5.4-17.6-10.9-35.3-16.3-53.5h0zM334.4 255.5l-.8 1.2c4.8 7.9 9.8 16 14.7 24.4 6.6-3.1 12.9-6.1 20.3-9.5-12.3-6.1-23.3-10.9-34.2-16.1zM433 281c5.2-8.5 10-16.7 15-24.6l-.9-.9c-10.9 5.1-22 10.3-34.3 16 7.4 3.5 13.7 6.2 20.2 9.5h0zm-98.1 209.3c6.6-13.7 4.7-21-8.7-31.7 3 10.7 5.7 20.9 8.7 31.7zm111.8-.2c2.9-10.8 5.6-20.8 8.7-32-14.1 13.6-15.4 18.9-8.7 32zm54.9-131.9c.4.1.8.4 1.2.5 4.6-6.1 8.9-12.4 13.5-18.8-3.3-1.6-5.7-2.6-8.7-4-1.9 7.9-3.9 15.2-6 22.3h0zM273.8 336c-3.1 1.4-5.6 2.6-8.7 4 4.7 6.6 9.2 12.5 13.5 18.8.4-.3.8-.4 1-.7-1.6-7.2-3.7-14.3-5.8-22.1h0zm61.1 154.3c-2.9-10.8-5.7-20.8-8.7-31.7" opacity=".25" fill="none" stroke="#ff0841" stroke-width=".75" stroke-miterlimit="10"/></svg>